Patient4_TMGait_0pt6_02_right_23_EMG.mot
version=1
nRows=29
nColumns=33
inDegrees=no
endheader
time	1LAddLong	2LGlutMax	3LGlutMed	4LIliopsoas	5LSemiMemb	6LBicFemLong	7LRecFem	8LVastMed	9LVastLat	10LGasMed	11LTibAnt	12lTibPost	13LPeroneusLong	14LSol	15LExtDigLong	16LFlexDigLong	17RAddLong	18RGlutMax	19RGlutMed	20RIliopsoas	21RSemiMemb	22RBicFemLong	23RRecFem	24RVastMed	25RVastLat	26RGasMed	27RTibAnt	28RTibPost	29RPeroneusLong	30RSol	31RExtDigLong	32RFlexDigLong
28.823	0.00946	-0.097198	0.12543	0.017548	0.022736	-0.050049	0.090942	0.003967	0.016022	-0.078735	-0.035553	0.005035	-0.014343	0.19226	0.047455	-0.012512	-0.012665	-0.03006	-0.046539	-0.051575	0.032349	0.028534	0.061951	-0.048981	0.024719	-0.014801	0.047455	-0.004883	-0.10025	-0.004272	-0.000916	0.007172
28.824	0.007019	-0.086212	0.15228	0.011749	0.014038	-0.010376	0.11612	0.004883	0.040436	-0.063019	0.11993	0.001678	-0.25101	0.20706	0.15991	-0.003815	0.004883	-0.067902	0.044861	-0.052338	0.029144	0.16449	0.065613	-0.089722	0.03067	-0.019073	0.049591	-0.002136	-0.073395	0.011902	0.000305	0.002441
28.825	0.005493	-0.11337	0.048676	0.013733	0.013733	-0.036316	0.083313	0.006409	0.16632	-0.051727	0.24384	0.005951	0.037689	0.25589	0.08194	-0.011444	0.008545	-0.031433	-0.17563	-0.041504	0.016479	0.14694	0.054779	-0.069427	0.019073	-0.019531	0.052032	-0.003052	0.025177	-0.00885	-0.000916	-0.007629
28.826	0.007172	-0.10162	0.045776	0.001068	0.024261	-0.002136	-0.003815	0.012512	0.12878	-0.020905	0.30579	0.001831	0.616	0.20065	0.054016	-0.005035	0.013885	-0.097809	-0.25452	-0.049896	-0.003357	0.025024	0.076752	-0.066376	0.022736	-0.015869	0.046997	-0.005341	0.09613	-0.048065	0.000458	-0.008545
28.827	0.013275	-0.11337	0.14267	-0.004578	0.032196	0.044098	-0.074005	-0.001831	0.097504	0.036926	0.11261	0.001221	0.30319	-0.00946	-0.17838	-0.017853	0.011292	-0.042267	0.092163	-0.070038	0.005188	-0.067749	0.050354	-0.075226	0.014038	-0.012207	0.041351	-0.006714	0.098114	-0.033875	-0.001221	0.001678
28.828	0.007019	-0.093842	0.059662	0.013733	0.023193	0.07019	-0.091553	-0.005951	0.073395	0.041656	-0.0383	0.000305	-0.1387	-0.034485	-0.28854	-0.02121	0.011139	-0.035553	0.14954	-0.17227	0.052795	-0.12253	0.054626	-0.073853	0.023956	-0.020294	0.04776	-0.004883	0.029144	-0.036163	-0.001831	-0.014954
28.829	0.013275	-0.084839	0.039063	-0.019684	0.015717	0.031128	-0.081482	-0.009003	0.12451	0.023651	-0.018616	-0.002594	-0.19272	0.012207	-0.64667	-0.000916	0.019531	-0.068665	0.081635	-0.18494	0.061188	-0.12116	0.074005	-0.094757	0.03067	-0.021057	0.026093	-0.00351	0.041809	-0.04303	-0.005798	-0.020447
28.83	0.016479	-0.079498	0.023499	-0.001984	0.021667	0.016632	-0.029449	-0.010986	0.10819	-0.0177	0.015564	0.006561	0.15198	0.035553	-0.71579	0.004883	0.042877	-0.07782	-0.009003	-0.10132	-0.027161	-0.0383	0.016785	-0.088959	0.027313	-0.02182	0.024872	-0.001678	0.01358	-0.051117	0.000916	-0.012512
28.831	0.00946	-0.050964	0.006409	-0.005341	0.014191	0.001678	-0.019073	-0.00946	0.090485	-0.051575	0.059814	-0.015259	0.22629	0.11017	0.10986	0.000305	0.025482	-0.054779	-0.087891	-0.008545	-0.16342	-0.011597	0.026855	-0.063782	0.04425	-0.028992	0.045929	-0.001984	0.083313	-0.062866	0.002747	-0.012817
28.832	0.005798	-0.003662	0.051727	-0.01358	0.014343	-0.013275	0.036316	-0.006866	0.070038	-0.05661	-0.168	0.018921	0.005188	0.15854	0.39627	0.000153	0.023041	0.031433	-0.083771	0.079803	-0.077515	-0.06897	0.050659	-0.065155	0.035706	-0.022583	0.044708	0.001221	0.069427	-0.085754	0.002594	-0.009613
28.833	0.004578	-0.08255	0.056763	-0.006561	0.019684	0.012512	0.029755	-0.002899	0.066528	-0.035095	-0.052338	0.00473	-0.09079	0.080261	0.23804	0.002594	0.020752	-0.005341	-0.11429	0.24933	-0.037384	0.045471	0.04425	-0.075684	0.028534	-0.028534	0.045319	-0.002899	-0.20477	-0.08667	0.000916	-0.006409
28.834	0.013275	-0.10239	0.012512	0.014191	0.018311	0.012207	0.038605	0.006409	0.049286	0.013733	0.1561	-0.001526	-0.078278	0.072784	0.58136	0.002747	-0.003967	-0.005341	-0.12878	0.35477	-0.17425	0.18631	0.034332	-0.042725	0.018158	-0.037842	-0.001526	-0.002594	-0.19882	-0.050201	0.00061	-0.00061
28.835	0.007172	-0.054169	-0.015869	0.009155	0.000916	0.025635	0.10666	0.001526	0.028687	0.021057	0.19791	-0.005341	-0.088043	0.002747	-0.11536	0.006409	-0.021667	-0.001526	-0.032196	0.1535	-0.19058	0.21545	0.03891	-0.061188	0.006561	-0.046997	-0.040436	-0.00351	0.11856	-0.032654	0.002594	0.002594
28.836	0.003815	-0.056305	0.009308	0.002899	-0.003815	0.002136	0.11643	0.006104	0.010529	-0.003357	0.19073	-0.003357	-0.024109	-0.056763	-0.19196	0.006409	-0.023956	-0.001984	0.25589	-0.04715	0.005341	0.24475	0.040436	-0.04425	0.018921	-0.055389	0.044708	-0.003204	0.21896	0.003662	0	0
28.837	0.003967	-0.054932	0.010986	0.000305	-0.011902	0.015869	0.093842	-0.004272	0.032654	-0.00473	0.03418	0.011597	0.033569	-0.049438	-0.075531	0.007019	0.031891	0.005951	0.28961	-0.04425	0.12299	0.11688	0.025177	-0.017395	0.006866	-0.074768	0.13763	-0.002747	0.030975	-0.023193	0.008698	-0.000916
28.838	0.010071	-0.025177	0.043335	-0.00061	0.014343	0.003204	0.086823	-0.001984	0.02655	-0.004425	-0.23651	0.008545	-0.018311	-0.016174	0.05722	-0.006104	0.032501	-0.012512	0.016479	0.002747	-0.019073	-0.010223	0.031433	-0.038757	0.012817	-0.0914	0.1564	-0.006866	-0.17944	-0.068054	0.003815	-0.001831
28.839	0.003357	-0.04837	0.02533	0.008087	0.039215	-0.071259	0.03952	0.007629	0.033875	0.020142	-0.1152	0	-0.088043	-0.061035	-0.19363	-0.00946	0.033722	-0.025177	-0.015411	0.096893	-0.076447	-0.037384	0.042419	-0.07431	0.003357	-0.10651	0.27023	-0.007782	-0.19058	-0.095215	0.00351	-0.002747
28.84	0.010834	-0.053711	0.019836	0.010376	0.053101	-0.087433	0.047302	0.010529	0.045319	0.023499	0.07782	0.003967	-0.084076	-0.20859	-0.40314	-0.006714	0.019379	-0.059204	-0.15015	0.088196	-0.07843	-0.004578	0.045319	-0.080261	0.017395	-0.112	0.30258	-0.009766	-0.075226	-0.14191	-0.000458	-0.009003
28.841	0.002594	-0.039978	0.010834	0.013275	0.041199	-0.087128	0.068054	-0.006561	0.066528	0.02594	0.078125	0.000763	-0.072479	-0.20081	-0.19043	-0.01236	0.000458	-0.060577	-0.14999	-0.021973	0.011139	0.030365	0.006256	-0.077515	0.021362	-0.081024	-0.08606	-0.005341	0.12238	-0.20813	-0.003662	-0.003052
28.842	-0.002289	-0.019836	0.035706	0.045471	0.040131	-0.050049	0.11475	-0.006561	0.066376	0.005341	-0.20462	0.002289	0.056305	-0.1738	-0.065002	-0.014648	-0.020142	-0.086975	-0.058746	-0.13458	0.063477	0.072937	0.020294	-0.034332	0.042114	-0.026703	-0.35461	-0.004425	0.095367	-0.2214	-0.001221	-0.006409
28.843	0.001526	-0.045624	-0.020447	0.025787	0.041656	0.03479	0.069733	-0.001068	0.016632	0.027618	-0.14862	0.001068	0.077515	-0.17532	0.072327	-0.016327	-0.028076	-0.028992	0.10834	-0.112	-0.02594	0.049133	-0.015106	-0.039978	0.03952	0.048676	-0.064087	-0.001526	-0.002136	-0.19928	0.000153	-0.010986
28.844	0.013733	-0.027924	0.030212	0.011444	0.048676	-0.003204	0.017548	0.002899	-0.028534	0.039368	-0.14084	-0.004425	0.021515	-0.15243	0.094757	-0.018768	0.005188	-0.037231	0.24414	0.011292	-0.056152	0.080872	-0.013733	-0.040436	0.03418	0.12848	-0.083618	-0.015259	0.03006	-0.076599	0.002594	-0.006866
28.845	0.013123	-0.009308	0.07843	-0.018311	0.02182	0.016937	0.04776	0.004272	0.039825	0.050812	-0.073242	0.00061	0.008087	-0.11581	0.078278	-0.013885	0.018768	-0.0354	0.24109	-0.007019	-0.059814	0.056458	0.012512	-0.044556	0.032196	0.2095	-0.26093	-0.007172	0.27451	-0.054779	-0.006561	-0.003357
28.846	0.003967	-0.016174	0.040741	-0.001373	-0.005188	0.084686	0.079193	-0.00824	0.061798	0.057526	-0.059662	-0.007935	-0.012817	-0.10147	0.050354	-0.014954	0.027924	-0.10834	-0.013123	-0.0177	0.13855	-0.011597	0.019684	0.001068	0.016785	0.26779	-0.33936	-0.005493	0.39124	-0.076447	0.003662	-0.001831
28.847	-0.000916	-0.012665	-0.013733	0.010681	-0.020599	0.094147	0.093689	0.000153	0.007477	0.050507	-0.039063	0.006256	-0.022888	-0.080872	0.027161	0.001526	0.024719	-0.041656	-0.18219	-0.024567	0.005035	-0.003662	0.011902	-0.065155	0.011444	0.30319	-0.26245	-0.006561	-0.19012	0.033569	-0.000763	-0.000305
28.848	-0.001373	0.020447	-0.022583	0.014648	-0.000916	0.066986	0.074005	0.009155	0.033875	0.046387	0.011139	-0.001068	0.009613	-0.062561	0.027771	-0.00885	0.058289	-0.022583	-0.17395	-0.011597	-0.15701	0.000153	0.04364	-0.10849	-0.01297	0.3009	-0.021667	0.000305	-0.27252	0.10162	0.00061	-0.001526
28.849	-0.006866	0.00885	0.035706	-0.007935	-0.046234	0.099945	0.10086	0.011902	0.11948	0.062256	0.049896	-0.007477	-0.018768	-0.063324	0.072174	-0.017395	0.064545	0.004883	-0.47195	0.089569	-0.28427	-0.029755	0.000305	-0.090179	0.005341	0.26794	-0.024109	-0.006561	-0.26154	0.13443	0.000153	0.00473
28.85	-0.011292	0.046539	0.077057	0.003204	-0.13138	0.11124	0.14358	0.006561	0.15396	0.083008	0.045624	0.000763	-0.039825	-0.015564	0.090942	-0.007019	0.050354	0.021515	-0.42236	0.084991	-0.33615	-0.053558	-0.040436	-0.11795	0.001678	0.21851	-0.31647	-0.007324	-0.41168	0.047607	0.000305	0.005188
28.851	-0.01297	0.049591	0.032806	0.007477	-0.18814	0.012665	0.15442	0.007324	0.048676	0.052032	0.090027	0.001068	-0.067444	-0.021362	0.11185	-0.008087	0.024719	0.049591	0.047455	0.012665	-0.11765	-0.088043	-0.006256	-0.12543	0.007477	0.15289	-0.27527	-0.00946	-0.48752	-0.047607	-0.003815	0.005646
